# xmcd
#
# Track frame offsets: 
#        150
#        2163
#        16946
#        33426
#        47858
#        64568
#        90308
#
# Disc length: 1383 seconds
#
# Revision: 3
# Processed by: cddbd v1.5.2PL0 Copyright (c) Steve Scherf et al.
# Submitted via: ExactAudioCopyFreeDBPlugin 1.0
#
DISCID=48056507
DTITLE=Cisco Kid - Sex su blondine
DYEAR=2002
DGENRE=Pop
TTITLE0=Kas nesokines (accapella)
TTITLE1=Kas nesokines
TTITLE2=Sex su blondine
TTITLE3=Autoatsakiklis
TTITLE4=Equaliser
TTITLE5=Kas nesokines (remix)
TTITLE6=Sex su blondine (latino mix)
EXTD=
EXTT0=
EXTT1=
EXTT2=
EXTT3=
EXTT4=
EXTT5=
EXTT6=
PLAYORDER=
